<svg width="145" height="167" viewBox="0 0 145 167" fill="none" xmlns="http://www.w3.org/2000/svg">
    <path d="M28.5765 35.5321L29.069 37.9831L28.5765 35.5321ZM21.7229 166.036C22.9602 166.649 24.46 166.143 25.0728 164.906L35.0594 144.744C35.6722 143.506 35.166 142.006 33.9287 141.394C32.6915 140.781 31.1917 141.287 30.5789 142.524L21.7019 160.446L3.77987 151.569C2.54261 150.957 1.04282 151.463 0.429988 152.7C-0.18283 153.937 0.323369 155.437 1.56063 156.05L21.7229 166.036ZM144.205 3.69486C144.596 2.37069 143.84 0.980204 142.516 0.589125C141.191 0.198046 139.801 0.954464 139.41 2.27863L144.205 3.69486ZM85.2859 92.3461L84.6987 89.916L85.2859 92.3461ZM28.084 33.0811C15.204 35.669 8.65353 46.0177 5.86245 58.9381C3.07763 71.8295 3.8435 87.9232 6.00803 103.469C8.17969 119.066 11.7944 134.343 14.8587 145.704C16.3921 151.388 17.7906 156.103 18.8068 159.4C19.315 161.048 19.7277 162.343 20.0142 163.227C20.1574 163.67 20.269 164.009 20.3453 164.24C20.3834 164.355 20.4126 164.443 20.4326 164.502C20.4425 164.532 20.4501 164.555 20.4554 164.571C20.458 164.578 20.46 164.584 20.4614 164.589C20.4621 164.591 20.4627 164.592 20.4631 164.593C20.4635 164.595 20.4638 164.596 22.8326 163.796C25.2013 162.997 25.2013 162.997 25.2011 162.996C25.2008 162.995 25.2005 162.995 25.2 162.993C25.199 162.99 25.1974 162.985 25.1951 162.979C25.1907 162.965 25.1838 162.945 25.1747 162.917C25.1563 162.862 25.1287 162.779 25.0922 162.669C25.0191 162.448 24.9108 162.119 24.771 161.687C24.4913 160.823 24.0857 159.551 23.585 157.927C22.5834 154.678 21.2018 150.02 19.6861 144.401C16.6522 133.154 13.0928 118.095 10.9603 102.779C8.82066 87.4127 8.15246 72.017 10.7497 59.9938C13.3407 47.9997 18.9884 40.0086 29.069 37.9831L28.084 33.0811ZM141.808 2.98674C139.41 2.27863 139.41 2.27854 139.41 2.27877C139.41 2.27925 139.41 2.27978 139.409 2.28076C139.409 2.2827 139.408 2.28588 139.406 2.29028C139.404 2.29908 139.4 2.31278 139.394 2.33129C139.383 2.36832 139.366 2.42463 139.344 2.49963C139.299 2.64962 139.23 2.87436 139.14 3.1691C138.958 3.7586 138.687 4.62802 138.33 5.73953C137.615 7.96279 136.556 11.1531 135.183 15.0082C132.437 22.7234 128.444 33.077 123.453 43.6599C118.454 54.2591 112.494 64.9994 105.834 73.5387C99.1225 82.1449 91.9754 88.1577 84.6987 89.916L85.8731 94.7762C94.8193 92.6144 102.849 85.4972 109.777 76.6135C116.757 67.6629 122.9 56.5534 127.975 45.7928C133.058 35.0159 137.112 24.4997 139.894 16.685C141.286 12.7752 142.361 9.53557 143.09 7.27014C143.454 6.13729 143.732 5.24767 143.919 4.63921C144.012 4.33498 144.083 4.101 144.131 3.94204C144.155 3.86256 144.173 3.80182 144.186 3.76043C144.192 3.73973 144.197 3.72387 144.2 3.71291C144.201 3.70744 144.203 3.70319 144.204 3.70018C144.204 3.69867 144.204 3.69734 144.205 3.69658C144.205 3.69557 144.205 3.69486 141.808 2.98674ZM84.6987 89.916C83.2392 90.2687 81.7642 89.971 80.0796 88.8629C78.3321 87.7133 76.4941 85.7686 74.5393 83.0931C70.612 77.7178 66.7606 70.192 62.4458 62.3461C58.2105 54.6448 53.5501 46.6846 48.1378 41.0034C42.6972 35.2924 36.0831 31.4738 28.084 33.0811L29.069 37.9831C34.659 36.8599 39.6388 39.3309 44.5176 44.4522C49.4247 49.6031 53.8091 57.0175 58.0646 64.7555C62.2405 72.3489 66.326 80.3271 70.5021 86.0428C72.599 88.9129 74.8543 91.4104 77.3318 93.0401C79.8723 94.7113 82.7541 95.5298 85.8731 94.7762L84.6987 89.916Z" fill="#A9C5FF"/>
</svg>
