<svg width="24" height="13" viewBox="0 0 24 13" fill="none" xmlns="http://www.w3.org/2000/svg">
    <path d="M1.01941 12.5625C0.777222 12.5625 0.57019 12.4766 0.398315 12.3047C0.22644 12.125 0.140503 11.9102 0.140503 11.6602C0.140503 11.418 0.22644 11.2109 0.398315 11.0391C0.57019 10.8672 0.777222 10.7812 1.01941 10.7812H22.9569C23.1991 10.7812 23.4061 10.8672 23.578 11.0391C23.7577 11.2109 23.8475 11.418 23.8475 11.6602C23.8475 11.9102 23.7577 12.125 23.578 12.3047C23.4061 12.4766 23.1991 12.5625 22.9569 12.5625H1.01941ZM1.01941 7.44141C0.777222 7.44141 0.57019 7.35547 0.398315 7.18359C0.22644 7.01172 0.140503 6.80469 0.140503 6.5625C0.140503 6.3125 0.22644 6.10156 0.398315 5.92969C0.57019 5.75 0.777222 5.66016 1.01941 5.66016H22.9569C23.1991 5.66016 23.4061 5.75 23.578 5.92969C23.7577 6.10156 23.8475 6.3125 23.8475 6.5625C23.8475 6.80469 23.7577 7.01172 23.578 7.18359C23.4061 7.35547 23.1991 7.44141 22.9569 7.44141H1.01941ZM1.01941 2.33203C0.777222 2.33203 0.57019 2.24609 0.398315 2.07422C0.22644 1.90234 0.140503 1.69531 0.140503 1.45312C0.140503 1.20312 0.22644 0.992188 0.398315 0.820312C0.57019 0.648438 0.777222 0.5625 1.01941 0.5625H22.9569C23.1991 0.5625 23.4061 0.648438 23.578 0.820312C23.7577 0.992188 23.8475 1.20312 23.8475 1.45312C23.8475 1.69531 23.7577 1.90234 23.578 2.07422C23.4061 2.24609 23.1991 2.33203 22.9569 2.33203H1.01941Z" fill="black"/>
</svg>
