<svg width="297" height="120" viewBox="0 0 297 120" fill="none" xmlns="http://www.w3.org/2000/svg">
    <path d="M279.227 56.3825C277.044 47.9214 269.794 37.6953 263.294 29.7843C256.103 21.0327 246.074 15.0157 234.571 12.5684C212.295 7.82881 172.457 2.76574 139.779 17.0005C99.0407 34.7462 51.2127 1.22796 15.2788 31.5004C-6.21714 49.6097 12.2956 77.7171 37.5459 86.5678C52.5338 91.8213 69.7159 96.8839 85.2787 99.1292C124.54 104.794 148.609 94.0001 187.988 99.1292C212.833 102.365 238.727 101.225 252.895 100.148C260.133 99.5971 267.696 98.0091 272.725 92.6364C278.498 86.4688 284.098 75.2641 279.227 56.3825Z" fill="#77A4FF"/>
    <g filter="url(#filter0_f_1_3)">
        <path d="M36.5981 40.8076C37.1463 39.8424 37.8239 38.9567 38.6122 38.1752C43.1869 33.6393 50.5036 33.4534 55.3029 37.7509L65.6795 47.0428C67.6468 48.8044 69.8623 50.2674 72.2549 51.3848L92.4593 60.8205C97.2414 63.0538 100.231 67.924 100.057 73.1991C99.7979 81.0749 92.733 86.9659 84.9388 85.805L67.4265 83.1969C60.4932 82.1642 54.1696 78.6521 49.6288 73.3118L38.0675 59.7151C33.6727 54.5465 32.9778 47.1818 36.3284 41.2825L36.5981 40.8076Z" fill="#ADC8FF"/>
    </g>
    <g filter="url(#filter1_f_1_3)">
        <path d="M199.096 80.2132C198.593 79.2236 198.228 78.1698 198.011 77.0812C196.751 70.7635 200.631 64.5578 206.863 62.9249L220.337 59.3945C222.892 58.7252 225.334 57.6841 227.586 56.3046L246.601 44.6559C251.101 41.8988 256.812 42.0916 261.117 45.1459C267.543 49.7061 268.56 58.8485 263.293 64.7095L251.458 77.8785C246.773 83.0923 240.355 86.4298 233.396 87.272L215.678 89.4161C208.943 90.2312 202.416 86.7487 199.343 80.7L199.096 80.2132Z" fill="#ADC8FF"/>
    </g>
    <defs>
        <filter id="filter0_f_1_3" x="0.221924" y="0.646606" width="133.842" height="119.305" filterUnits="userSpaceOnUse" color-interpolation-filters="sRGB">
            <feFlood flood-opacity="0" result="BackgroundImageFix"/>
            <feBlend mode="normal" in="SourceGraphic" in2="BackgroundImageFix" result="shape"/>
            <feGaussianBlur stdDeviation="17" result="effect1_foregroundBlur_1_3"/>
        </filter>
        <filter id="filter1_f_1_3" x="167.774" y="12.7141" width="128.897" height="106.819" filterUnits="userSpaceOnUse" color-interpolation-filters="sRGB">
            <feFlood flood-opacity="0" result="BackgroundImageFix"/>
            <feBlend mode="normal" in="SourceGraphic" in2="BackgroundImageFix" result="shape"/>
            <feGaussianBlur stdDeviation="15" result="effect1_foregroundBlur_1_3"/>
        </filter>
    </defs>
</svg>
