<svg width="600" height="155" viewBox="0 0 600 155" fill="none" xmlns="http://www.w3.org/2000/svg">
    <rect width="600" height="155" fill="#E5EAF9"/>
    <path d="M-24.5001 95.5C-24.3057 95.2607 -24.0885 95.0076 -23.8501 94.7418C-4.318 72.9663 30.6015 76.6854 52.9999 95.5L105.123 145.568C135.301 174.556 113.29 225.454 71.4999 223.319L32.057 223.319C9.40149 223.319 -12.1559 213.559 -27.1038 196.535C-51.6611 168.566 -49.8209 126.363 -26.2085 97.5923C-25.639 96.8983 -25.0694 96.2008 -24.5001 95.5Z" fill="#77A4FF"/>
    <g filter="url(#filter0_f_1_3)">
        <path d="M-20.936 124.397C-20.2478 123.142 -19.4521 121.95 -18.5577 120.833C-8.80723 108.655 9.64502 108.436 19.6813 120.38L26.4257 128.406C29.7259 132.333 33.8881 135.445 38.5882 137.501L56.3078 145.25C71.2635 151.79 79.6951 167.817 76.6134 183.847C73.5164 199.956 59.6264 211.74 43.2276 212.17L29.2727 212.536C9.85596 213.045 -8.24281 202.748 -17.7269 185.798L-21.9153 178.312C-30.8977 162.258 -30.9803 142.71 -22.1338 126.581L-20.936 124.397Z" fill="#ADC8FF"/>
    </g>
    <path d="M531.5 -65.5C531.694 -65.7393 531.911 -65.9924 532.15 -66.2582C551.682 -88.0337 586.602 -84.3146 609 -65.5L661.123 -15.4317C691.301 13.5562 669.29 64.454 627.5 62.3193L588.057 62.3193C565.401 62.3193 543.844 52.5595 528.896 35.5351C504.339 7.56634 506.179 -34.6368 529.791 -63.4077C530.361 -64.1017 530.931 -64.7992 531.5 -65.5Z" fill="#77A4FF"/>
    <g filter="url(#filter1_f_1_3)">
        <path d="M535.064 -36.603C535.752 -37.8576 536.548 -39.0502 537.443 -40.1673C547.193 -52.3451 565.645 -52.5638 575.682 -40.6204L582.426 -32.5945C585.726 -28.6672 589.888 -25.5546 594.588 -23.4992L612.308 -15.75C627.264 -9.20959 635.695 6.81711 632.614 22.8469C629.517 38.9563 615.627 50.74 599.228 51.1698L585.273 51.5356C565.856 52.0445 547.757 41.7482 538.273 24.7977L534.085 17.3121C525.103 1.25819 525.02 -18.2898 533.866 -34.419L535.064 -36.603Z" fill="#ADC8FF"/>
    </g>
    <defs>
        <filter id="filter0_f_1_3" x="-52.7109" y="87.5589" width="153.956" height="148.995" filterUnits="userSpaceOnUse" color-interpolation-filters="sRGB">
            <feFlood flood-opacity="0" result="BackgroundImageFix"/>
            <feBlend mode="normal" in="SourceGraphic" in2="BackgroundImageFix" result="shape"/>
            <feGaussianBlur stdDeviation="12" result="effect1_foregroundBlur_1_3"/>
        </filter>
        <filter id="filter1_f_1_3" x="503.289" y="-73.4411" width="153.956" height="148.995" filterUnits="userSpaceOnUse" color-interpolation-filters="sRGB">
            <feFlood flood-opacity="0" result="BackgroundImageFix"/>
            <feBlend mode="normal" in="SourceGraphic" in2="BackgroundImageFix" result="shape"/>
            <feGaussianBlur stdDeviation="12" result="effect1_foregroundBlur_1_3"/>
        </filter>
    </defs>
</svg>
