<svg width="1254" height="555" viewBox="0 0 1254 555" fill="none" xmlns="http://www.w3.org/2000/svg">
    <path d="M614.033 259.663C612.046 257.217 608.482 253.819 604.052 249.947C576.333 225.722 534.854 227.98 506.667 251.657L497.136 259.663L418.516 335.183C372.998 378.907 406.197 455.678 469.232 452.459L541.741 452.459C567.64 452.459 592.284 441.302 609.372 421.84L633.957 393.839C662.03 361.867 660.129 313.494 632.254 281.349C626.289 274.469 620.148 267.192 614.033 259.663Z" fill="#77A4FF"/>
    <g filter="url(#filter0_f_1_3)">
        <path d="M564.521 308.253C563.679 306.707 562.721 305.228 561.656 303.827C547.714 285.498 520.13 285.533 506.235 303.898L501.197 310.556C496.87 316.275 491.121 320.764 484.523 323.574L469.098 330.145C445.289 340.287 432.166 366.029 437.944 391.255C443.126 413.877 462.315 430.571 485.437 432.572L497.868 433.647C527.17 436.183 554.973 420.281 567.644 393.739L571.565 385.526C581.843 363.996 581.174 338.843 569.767 317.889L564.521 308.253Z" fill="#ADC8FF"/>
    </g>
    <rect width="1254" height="555" fill="#ADC8FF" fill-opacity="0.2"/>
    <path d="M69.6135 255.5C70.1075 254.83 70.7636 254.051 71.5516 253.188C89.3444 233.686 119.764 236.83 139.929 255.5L186.806 305.129C215.331 335.33 196.011 385.532 156.714 383.319L122.738 383.319C101.145 383.319 80.2663 372.873 65.9558 354.909C44.1912 327.588 44.9824 288.068 65.1874 261.42C66.6599 259.477 68.1379 257.502 69.6135 255.5Z" fill="#77A4FF"/>
    <g filter="url(#filter1_f_1_3)">
        <path d="M72.9219 284.247C73.4967 283.092 74.1618 281.994 74.9104 280.963C83.7023 268.861 101.148 269.164 110.618 281.584L115.736 288.298C118.78 292.29 122.655 295.477 127.027 297.584L140.978 304.309C155.627 311.37 164.079 328.224 161.212 344.66C158.461 360.43 145.983 371.739 130.851 372.176L119.981 372.49C101.549 373.022 84.0138 362.059 75.047 344.395L72.0593 338.51C63.8143 322.269 63.5556 303.069 71.3701 287.365L72.9219 284.247Z" fill="#ADC8FF"/>
    </g>
    <defs>
        <filter id="filter0_f_1_3" x="412.589" y="266.102" width="190.236" height="191.809" filterUnits="userSpaceOnUse" color-interpolation-filters="sRGB">
            <feFlood flood-opacity="0" result="BackgroundImageFix"/>
            <feBlend mode="normal" in="SourceGraphic" in2="BackgroundImageFix" result="shape"/>
            <feGaussianBlur stdDeviation="12" result="effect1_foregroundBlur_1_3"/>
        </filter>
        <filter id="filter1_f_1_3" x="41.6871" y="248.074" width="144.08" height="148.434" filterUnits="userSpaceOnUse" color-interpolation-filters="sRGB">
            <feFlood flood-opacity="0" result="BackgroundImageFix"/>
            <feBlend mode="normal" in="SourceGraphic" in2="BackgroundImageFix" result="shape"/>
            <feGaussianBlur stdDeviation="12" result="effect1_foregroundBlur_1_3"/>
        </filter>
    </defs>
</svg>
