<svg width="390" height="405" viewBox="0 0 390 405" fill="none" xmlns="http://www.w3.org/2000/svg">
    <rect width="390" height="405" rx="20" fill="#ADC8FF" fill-opacity="0.2"/>
    <path d="M0.613479 136.5C1.10753 135.83 1.76363 135.051 2.55162 134.188C20.3444 114.686 50.7637 117.83 70.9292 136.5L117.806 186.129C146.331 216.33 127.011 266.532 87.7142 264.319L53.7378 264.319C32.1452 264.319 11.2663 253.873 -3.04422 235.909C-24.8088 208.588 -24.0176 169.068 -3.81264 142.42C-2.34005 140.477 -0.862092 138.502 0.613479 136.5Z" fill="#77A4FF"/>
    <g filter="url(#filter0_f_1_3)">
        <path d="M3.92188 165.247C4.49671 164.092 5.1618 162.994 5.91042 161.963C14.7023 149.861 32.1482 150.164 41.6177 162.584L46.7362 169.298C49.7802 173.29 53.6548 176.477 58.0266 178.584L71.978 185.309C86.627 192.37 95.0787 209.224 92.2119 225.66C89.4613 241.43 76.983 252.739 61.8512 253.176L50.9813 253.49C32.549 254.022 15.0138 243.059 6.04698 225.395L3.05934 219.51C-5.1857 203.269 -5.44444 184.069 2.37011 168.365L3.92188 165.247Z" fill="#ADC8FF"/>
    </g>
    <path d="M418.033 247.663C416.046 245.217 412.482 241.819 408.052 237.947C380.333 213.722 338.854 215.98 310.667 239.657L301.136 247.663L222.516 323.183C176.998 366.907 210.197 443.678 273.232 440.459L345.741 440.459C371.64 440.459 396.284 429.302 413.372 409.84L437.957 381.839C466.03 349.867 464.129 301.494 436.254 269.349C430.289 262.469 424.148 255.192 418.033 247.663Z" fill="#77A4FF"/>
    <g filter="url(#filter1_f_1_3)">
        <path d="M368.521 296.253C367.679 294.707 366.721 293.228 365.656 291.827C351.714 273.498 324.13 273.533 310.235 291.898L305.197 298.556C300.87 304.275 295.121 308.764 288.523 311.574L273.098 318.145C249.289 328.287 236.166 354.029 241.944 379.255C247.126 401.877 266.315 418.571 289.437 420.572L301.868 421.647C331.17 424.183 358.973 408.281 371.644 381.739L375.565 373.526C385.843 351.996 385.174 326.843 373.767 305.889L368.521 296.253Z" fill="#ADC8FF"/>
    </g>
    <defs>
        <filter id="filter0_f_1_3" x="-27.3129" y="129.074" width="144.08" height="148.434" filterUnits="userSpaceOnUse" color-interpolation-filters="sRGB">
            <feFlood flood-opacity="0" result="BackgroundImageFix"/>
            <feBlend mode="normal" in="SourceGraphic" in2="BackgroundImageFix" result="shape"/>
            <feGaussianBlur stdDeviation="12" result="effect1_foregroundBlur_1_3"/>
        </filter>
        <filter id="filter1_f_1_3" x="216.588" y="254.102" width="190.236" height="191.809" filterUnits="userSpaceOnUse" color-interpolation-filters="sRGB">
            <feFlood flood-opacity="0" result="BackgroundImageFix"/>
            <feBlend mode="normal" in="SourceGraphic" in2="BackgroundImageFix" result="shape"/>
            <feGaussianBlur stdDeviation="12" result="effect1_foregroundBlur_1_3"/>
        </filter>
    </defs>
</svg>
