<svg width="59" height="53" viewBox="0 0 59 53" fill="none" xmlns="http://www.w3.org/2000/svg">
    <path d="M0.03125 46.8125V12.2422C0.03125 10.4453 0.46875 9.09375 1.34375 8.1875C2.23438 7.28125 3.57812 6.82812 5.375 6.82812H8.32812C10.125 6.82812 11.4609 7.28125 12.3359 8.1875C13.2109 9.09375 13.6484 10.4453 13.6484 12.2422V15.0547C14.2266 14.9141 14.8281 14.8438 15.4531 14.8438H25.6719C26.2969 14.8438 26.8906 14.9141 27.4531 15.0547V5.75C27.4531 3.95312 27.8906 2.60156 28.7656 1.69531C29.6562 0.789062 31 0.335938 32.7969 0.335938H37.3906C39.1875 0.335938 40.5234 0.789062 41.3984 1.69531C42.2891 2.60156 42.7344 3.95312 42.7344 5.75V46.8125C42.7344 48.6094 42.2891 49.9531 41.3984 50.8438C40.5234 51.75 39.1875 52.2031 37.3906 52.2031H5.375C3.57812 52.2031 2.23438 51.75 1.34375 50.8438C0.46875 49.9531 0.03125 48.6094 0.03125 46.8125ZM3.57031 46.5312C3.57031 47.2344 3.75 47.7656 4.10938 48.125C4.46875 48.4844 5.01562 48.6641 5.75 48.6641H10.1094V12.5C10.1094 11.8125 9.92969 11.2891 9.57031 10.9297C9.22656 10.5547 8.6875 10.3672 7.95312 10.3672H5.75C5.01562 10.3672 4.46875 10.5547 4.10938 10.9297C3.75 11.2891 3.57031 11.8125 3.57031 12.5V46.5312ZM13.6484 48.6641H27.4531V20.5156C27.4531 19.8281 27.2734 19.3047 26.9141 18.9453C26.5703 18.5703 26.0312 18.3828 25.2969 18.3828H15.8281C15.1094 18.3828 14.5625 18.5703 14.1875 18.9453C13.8281 19.3047 13.6484 19.8281 13.6484 20.5156V48.6641ZM30.9922 48.6641H37.0156C37.75 48.6641 38.2969 48.4844 38.6562 48.125C39.0156 47.7656 39.1953 47.2344 39.1953 46.5312V6.00781C39.1953 5.32031 39.0156 4.79687 38.6562 4.4375C38.2969 4.0625 37.75 3.875 37.0156 3.875H33.1719C32.4531 3.875 31.9062 4.0625 31.5312 4.4375C31.1719 4.79687 30.9922 5.32031 30.9922 6.00781V48.6641ZM15.7812 22.9297C15.7812 22.5234 15.9141 22.1875 16.1797 21.9219C16.4609 21.6406 16.8203 21.5 17.2578 21.5H23.9141C24.3359 21.5 24.6797 21.6406 24.9453 21.9219C25.2266 22.1875 25.3672 22.5234 25.3672 22.9297C25.3672 23.3359 25.2266 23.6797 24.9453 23.9609C24.6797 24.2422 24.3359 24.3828 23.9141 24.3828H17.2578C16.8203 24.3828 16.4609 24.2422 16.1797 23.9609C15.9141 23.6797 15.7812 23.3359 15.7812 22.9297ZM15.7812 44.1172C15.7812 43.7109 15.9141 43.375 16.1797 43.1094C16.4609 42.8281 16.8203 42.6875 17.2578 42.6875H23.9141C24.3359 42.6875 24.6797 42.8281 24.9453 43.1094C25.2266 43.375 25.3672 43.7109 25.3672 44.1172C25.3672 44.5234 25.2266 44.8672 24.9453 45.1484C24.6797 45.4297 24.3359 45.5703 23.9141 45.5703H17.2578C16.8203 45.5703 16.4609 45.4297 16.1797 45.1484C15.9141 44.8672 15.7812 44.5234 15.7812 44.1172ZM44.8438 47.4688L40.7891 12.4297C40.5703 10.6484 40.8438 9.27344 41.6094 8.30469C42.375 7.33594 43.6641 6.72656 45.4766 6.47656L47.9141 6.14844C49.7109 5.88281 51.0938 6.16406 52.0625 6.99219C53.0469 7.80469 53.6406 9.10156 53.8438 10.8828L57.875 45.9219C58.0781 47.7031 57.7969 49.0781 57.0312 50.0469C56.2812 51.0156 55.0078 51.625 53.2109 51.875L50.7734 52.2031C48.9766 52.4531 47.5938 52.1719 46.625 51.3594C45.6562 50.5469 45.0625 49.25 44.8438 47.4688ZM48.3125 46.7656C48.3906 47.4688 48.625 47.9844 49.0156 48.3125C49.4219 48.6406 49.9844 48.75 50.7031 48.6406L52.4375 48.4062C53.1562 48.3125 53.6719 48.0703 53.9844 47.6797C54.2969 47.2891 54.4141 46.7422 54.3359 46.0391L50.375 11.5625C50.2969 10.8906 50.0547 10.3906 49.6484 10.0625C49.2422 9.71875 48.6797 9.60156 47.9609 9.71094L46.2734 9.92188C45.5391 10.0313 45.0156 10.2812 44.7031 10.6719C44.3906 11.0625 44.2734 11.6016 44.3516 12.2891L48.3125 46.7656Z" fill="black"/>
</svg>
