<svg width="51" height="57" viewBox="0 0 51 57" fill="none" xmlns="http://www.w3.org/2000/svg">
    <path d="M3.51562 53.4763C1.5625 51.5232 0.578125 49.4607 0.5625 47.2888C0.546875 45.1169 1.5 43.0701 3.42188 41.1482C4.125 40.4451 5.02344 39.7419 6.11719 39.0388C7.21094 38.3201 8.35938 37.6169 9.5625 36.9294C10.7656 36.2263 11.8984 35.5623 12.9609 34.9373C14.0234 34.2966 14.8828 33.7029 15.5391 33.156L10.5234 28.1638C9.60156 27.2419 9.14062 26.2654 9.14062 25.2341C9.14062 24.2029 9.58594 23.2419 10.4766 22.3513L13.5 19.3044C14.4062 18.4138 15.3672 17.9763 16.3828 17.9919C17.4141 17.9919 18.3906 18.4529 19.3125 19.3748L37.6172 37.7029C38.5547 38.6248 39.0234 39.5935 39.0234 40.6091C39.0234 41.6248 38.5781 42.5857 37.6875 43.4919L34.6641 46.5388C33.7734 47.4294 32.8047 47.8669 31.7578 47.8513C30.7266 47.8513 29.7578 47.3904 28.8516 46.4685L23.8594 41.4529C23.2969 42.1091 22.6953 42.9685 22.0547 44.031C21.4297 45.0935 20.7734 46.2263 20.0859 47.4294C19.3984 48.6482 18.6953 49.8044 17.9766 50.8982C17.2734 51.9919 16.5625 52.8904 15.8438 53.5935C13.9219 55.5154 11.875 56.4685 9.70312 56.4529C7.53125 56.4373 5.46875 55.4451 3.51562 53.4763ZM13.7344 24.4373C13.0938 25.0623 13.0938 25.6951 13.7344 26.3357L19.3828 31.9607C19.8203 32.3826 20.0156 32.8591 19.9688 33.3904C19.9219 33.9216 19.6641 34.4373 19.1953 34.9373C18.7422 35.3904 17.9766 35.9294 16.8984 36.5544C15.8359 37.1638 14.6328 37.8435 13.2891 38.5935C11.9453 39.3435 10.6172 40.1482 9.30469 41.0076C7.99219 41.8669 6.875 42.7576 5.95312 43.6794C4.8125 44.8044 4.24219 46.0154 4.24219 47.3123C4.25781 48.6091 4.84375 49.8357 6 50.9919C7.17188 52.1482 8.39844 52.7263 9.67969 52.7263C10.9766 52.7419 12.1875 52.1794 13.3125 51.0388C14.25 50.1169 15.1406 48.9998 15.9844 47.6873C16.8438 46.3748 17.6484 45.0466 18.3984 43.7029C19.1484 42.3591 19.8359 41.156 20.4609 40.0935C21.0859 39.031 21.625 38.2732 22.0781 37.8201C22.5781 37.3357 23.0859 37.0779 23.6016 37.0466C24.1328 36.9998 24.6172 37.1951 25.0547 37.6326L30.6562 43.2576C31.2969 43.9294 31.9375 43.9216 32.5781 43.2341L34.4062 41.3826C35.0469 40.7419 35.0625 40.1091 34.4531 39.4841L17.5078 22.5623C17.2109 22.2498 16.8984 22.1013 16.5703 22.1169C16.2578 22.1169 15.9453 22.2732 15.6328 22.5857L13.7344 24.4373ZM9.58594 50.3591C8.78906 50.3591 8.10156 50.0701 7.52344 49.4919C6.96094 48.9294 6.67969 48.2498 6.67969 47.4529C6.67969 46.656 6.96094 45.9763 7.52344 45.4138C8.10156 44.8513 8.78906 44.5701 9.58594 44.5701C10.3828 44.5701 11.0625 44.8513 11.625 45.4138C12.1875 45.9763 12.4688 46.656 12.4688 47.4529C12.4688 48.2498 12.1875 48.9294 11.625 49.4919C11.0625 50.0701 10.3828 50.3591 9.58594 50.3591ZM37.3594 40.0232L34.7344 37.3982L45.5859 26.5466C46.0859 26.0466 46.3359 25.4919 46.3359 24.8826C46.3359 24.2732 46.0625 23.6951 45.5156 23.1482L27.9609 5.61694C27.6953 5.35132 27.4219 5.21069 27.1406 5.19507C26.8594 5.16382 26.6016 5.24976 26.3672 5.45288C26.1484 5.64038 25.9844 5.93726 25.875 6.34351C25.3125 8.43726 24.8359 10.2263 24.4453 11.7107C24.0547 13.1794 23.6484 14.4919 23.2266 15.6482C22.8203 16.8044 22.3047 17.9373 21.6797 19.0466C21.0703 20.1404 20.25 21.3591 19.2188 22.7029L16.5234 20.0076C17.2422 19.0076 17.8359 18.1248 18.3047 17.3591C18.7734 16.5935 19.1719 15.8357 19.5 15.0857C19.8281 14.3201 20.125 13.4763 20.3906 12.5544C20.6719 11.6169 20.9609 10.4998 21.2578 9.20288C21.5703 7.89038 21.9453 6.28882 22.3828 4.39819C22.6016 3.44507 23 2.67163 23.5781 2.07788C24.1562 1.48413 24.8203 1.08569 25.5703 0.882568C26.3359 0.679443 27.1016 0.679443 27.8672 0.882568C28.6484 1.07007 29.3516 1.46851 29.9766 2.07788L48.375 20.4998C49.7031 21.8435 50.375 23.2576 50.3906 24.7419C50.4219 26.2107 49.7891 27.5935 48.4922 28.8904L37.3594 40.0232ZM33.6562 26.6638C33.375 26.3826 33.3984 26.0857 33.7266 25.7732C35.0391 24.4607 36.1797 23.0232 37.1484 21.4607C38.1328 19.8982 38.7344 18.0779 38.9531 15.9998L44.1094 21.1326C43.5156 21.8826 42.7031 22.6482 41.6719 23.4294C40.6406 24.1951 39.5625 24.8826 38.4375 25.4919C37.3281 26.0857 36.3281 26.5076 35.4375 26.7576C34.5625 27.0076 33.9688 26.9763 33.6562 26.6638Z" fill="black"/>
</svg>
