<svg width="54" height="47" viewBox="0 0 54 47" fill="none" xmlns="http://www.w3.org/2000/svg">
    <path d="M10.2617 47.0034C9.49349 47.0034 8.84896 46.7821 8.32812 46.3394C7.82031 45.8966 7.4362 45.1935 7.17578 44.23L4.63672 34.894C4.44141 34.1388 4.42839 33.4357 4.59766 32.7847C4.76693 32.1206 5.01432 31.4175 5.33984 30.6753C5.66536 29.9201 5.96484 29.0477 6.23828 28.0581C6.51172 27.0555 6.64844 25.8446 6.64844 24.4253C6.64844 24.0998 6.64844 23.6701 6.64844 23.1362C6.66146 22.6024 6.68099 21.9644 6.70703 21.2222C6.72005 20.6883 6.61589 20.2782 6.39453 19.9917C6.1862 19.6922 5.82161 19.4123 5.30078 19.1519C3.76432 18.4097 2.54036 17.2964 1.62891 15.812C0.730469 14.3146 0.28125 12.5828 0.28125 10.6167C0.28125 8.71566 0.730469 7.04248 1.62891 5.59717C2.52734 4.13883 3.77083 2.99951 5.35938 2.1792C6.96094 1.35889 8.80339 0.94873 10.8867 0.94873C11.9023 0.94873 12.9701 1.05941 14.0898 1.28076C15.2096 1.4891 16.3685 1.83415 17.5664 2.31592C18.0352 2.51123 18.3346 2.79769 18.4648 3.17529C18.5951 3.53988 18.5885 3.89795 18.4453 4.24951C18.3151 4.60107 18.0742 4.86149 17.7227 5.03076C17.3711 5.18701 16.9414 5.16748 16.4336 4.97217C15.4049 4.5555 14.4414 4.25602 13.543 4.07373C12.6445 3.87842 11.7591 3.78076 10.8867 3.78076C9.3763 3.78076 8.03516 4.07373 6.86328 4.65967C5.69141 5.23258 4.77344 6.03337 4.10938 7.06201C3.44531 8.09066 3.11328 9.27555 3.11328 10.6167C3.11328 11.9448 3.42578 13.1232 4.05078 14.1519C4.67578 15.1675 5.52214 15.9422 6.58984 16.4761C6.99349 16.6974 7.39062 16.8146 7.78125 16.8276C8.17188 16.8407 8.53646 16.6258 8.875 16.1831C9.59115 15.2326 10.5677 14.4448 11.8047 13.8198C13.0547 13.1818 14.6693 12.8628 16.6484 12.8628C18.4974 12.8628 20.1185 12.9214 21.5117 13.0386C22.918 13.1427 24.2461 13.2664 25.4961 13.4097C26.7591 13.5529 28.0872 13.6831 29.4805 13.8003C30.8867 13.9045 32.5078 13.9565 34.3438 13.9565C34.6953 13.9565 34.9883 13.8524 35.2227 13.644C35.457 13.4357 35.6849 13.1297 35.9062 12.7261L36.9609 10.8901C37.3125 10.2912 37.7096 9.67269 38.1523 9.03467C38.6081 8.39665 39.0833 7.79118 39.5781 7.21826C40.0729 6.63232 40.5677 6.118 41.0625 5.67529C41.5052 4.51644 42.0716 3.54639 42.7617 2.76514C43.4648 1.97087 44.1484 1.57373 44.8125 1.57373C45.2422 1.57373 45.7109 1.76253 46.2188 2.14014C46.7396 2.50472 47.2148 3.02555 47.6445 3.70264C48.0872 4.3667 48.4128 5.15446 48.6211 6.06592C49.4935 6.56071 50.3138 7.19873 51.082 7.97998C51.8503 8.74821 52.4753 9.56852 52.957 10.4409C53.4518 11.3133 53.6992 12.1532 53.6992 12.9604C53.6992 13.6636 53.4258 14.3797 52.8789 15.1089C52.3451 15.8381 51.6094 16.4761 50.6719 17.0229C49.7474 17.5568 48.6992 17.9019 47.5273 18.0581C47.4622 20.0112 47.2669 21.6649 46.9414 23.019C46.6289 24.3602 46.2318 25.493 45.75 26.4175C45.2812 27.342 44.7669 28.1427 44.207 28.8198C43.6602 29.4839 43.1133 30.1154 42.5664 30.7144C42.0195 31.3003 41.5182 31.9318 41.0625 32.6089C40.6198 33.286 40.2617 34.0933 39.9883 35.0308C39.7148 35.9683 39.5781 37.1271 39.5781 38.5073V40.1089C40.2812 40.2651 40.8867 40.5972 41.3945 41.105C41.9023 41.6128 42.1562 42.381 42.1562 43.4097C42.1562 44.4774 41.7786 45.3433 41.0234 46.0073C40.2682 46.6714 39.2982 47.0034 38.1133 47.0034H35.6133C34.2331 47.0034 33.1719 46.6258 32.4297 45.8706C31.7005 45.1154 31.3359 44.0347 31.3359 42.6284C31.3359 41.7821 31.3555 41.0334 31.3945 40.3823C31.4466 39.7313 31.4922 39.0737 31.5312 38.4097C31.5833 37.7456 31.6094 36.9709 31.6094 36.0854C31.6094 35.9292 31.5508 35.6167 31.4336 35.1479C31.3164 34.6662 31.1927 34.1388 31.0625 33.5659C28.6536 34.1128 26.069 34.3862 23.3086 34.3862C21.8893 34.3862 20.4245 34.256 18.9141 33.9956C17.4167 33.7222 16.1146 33.3576 15.0078 32.9019C14.7995 33.4618 14.6432 34.0802 14.5391 34.7573C14.4349 35.4214 14.3828 36.2482 14.3828 37.2378V40.1089C15.0729 40.2782 15.6719 40.6102 16.1797 41.105C16.6875 41.6128 16.9414 42.381 16.9414 43.4097C16.9414 44.5164 16.5768 45.3888 15.8477 46.0269C15.1185 46.6779 14.1419 47.0034 12.918 47.0034H10.2617ZM11.082 44.1714H12.7422C13.6536 44.1714 14.1094 43.8133 14.1094 43.0972C14.1094 42.7716 13.9987 42.5112 13.7773 42.3159C13.556 42.1206 13.2174 42.0229 12.7617 42.0229H12.332C12.0846 42.0229 11.8893 41.9513 11.7461 41.8081C11.6159 41.6779 11.5508 41.4891 11.5508 41.2417V35.7925C11.5508 34.6987 11.668 33.7873 11.9023 33.0581C12.1497 32.3289 12.5273 31.5282 13.0352 30.6558C13.4518 29.9136 13.849 29.2235 14.2266 28.5854C14.6042 27.9474 14.9622 27.2443 15.3008 26.4761C15.5221 26.0203 15.8151 25.7339 16.1797 25.6167C16.5443 25.4865 16.8958 25.493 17.2344 25.6362C17.5729 25.7795 17.8268 26.0138 17.9961 26.3394C18.1784 26.6519 18.1979 27.0164 18.0547 27.4331C17.9245 27.7847 17.7096 28.2274 17.4102 28.7612C17.1237 29.2821 16.7917 29.8354 16.4141 30.4214C17.2474 30.7469 18.2826 31.0203 19.5195 31.2417C20.7695 31.45 22.0326 31.5542 23.3086 31.5542C24.6237 31.5542 25.9388 31.4826 27.2539 31.3394C28.569 31.1961 29.6953 31.0073 30.6328 30.7729C30.6328 30.161 30.7305 29.5295 30.9258 28.8784C31.1341 28.2274 31.3685 27.5698 31.6289 26.9058C31.8112 26.4761 32.0781 26.2026 32.4297 26.0854C32.7943 25.9683 33.1458 25.9813 33.4844 26.1245C33.8359 26.2677 34.0964 26.4956 34.2656 26.8081C34.4479 27.1206 34.4544 27.4852 34.2852 27.9019C34.0638 28.4227 33.8685 28.9175 33.6992 29.3862C33.543 29.842 33.4648 30.2131 33.4648 30.4995C33.4648 30.9943 33.543 31.6128 33.6992 32.355C33.8685 33.0841 34.0312 33.8003 34.1875 34.5034C34.3568 35.1935 34.4414 35.7209 34.4414 36.0854C34.4414 37.1401 34.4154 38.019 34.3633 38.7222C34.3242 39.4383 34.2786 40.0763 34.2266 40.6362C34.1875 41.2091 34.168 41.8016 34.168 42.4136C34.168 42.9865 34.3177 43.4227 34.6172 43.7222C34.9167 44.0216 35.3529 44.1714 35.9258 44.1714H37.9375C38.4062 44.1714 38.7513 44.0802 38.9727 43.8979C39.207 43.7157 39.3242 43.4487 39.3242 43.0972C39.3242 42.7586 39.2135 42.4917 38.9922 42.2964C38.7708 42.1141 38.4323 42.0229 37.9766 42.0229H37.5469C37.2995 42.0229 37.1042 41.9513 36.9609 41.8081C36.8177 41.6779 36.7461 41.4891 36.7461 41.2417V38.5073C36.7461 36.6844 36.8893 35.161 37.1758 33.937C37.4622 32.7 37.8398 31.6649 38.3086 30.8315C38.7904 29.9982 39.3112 29.269 39.8711 28.644C40.444 28.006 41.0104 27.3745 41.5703 26.7495C42.1432 26.1115 42.6641 25.3823 43.1328 24.562C43.6016 23.7417 43.9792 22.7326 44.2656 21.5347C44.5651 20.3237 44.7148 18.8133 44.7148 17.0034V16.7104C44.7148 15.8641 45.1185 15.4409 45.9258 15.4409H46.1797C47.1042 15.4409 47.918 15.2912 48.6211 14.9917C49.3242 14.6922 49.8711 14.3472 50.2617 13.9565C50.6654 13.5529 50.8672 13.1883 50.8672 12.8628C50.8672 12.394 50.6458 11.8407 50.2031 11.2026C49.7734 10.5516 49.207 9.90055 48.5039 9.24951C47.8138 8.59847 47.0586 8.03206 46.2383 7.55029C46.0169 6.52165 45.7435 5.75993 45.418 5.26514C45.1055 4.77035 44.8906 4.52295 44.7734 4.52295C44.5651 4.52295 44.3242 4.75081 44.0508 5.20654C43.7773 5.64925 43.3672 6.48258 42.8203 7.70654C42.3125 8.08415 41.7721 8.6766 41.1992 9.48389C40.6393 10.2912 40.0729 11.2026 39.5 12.2183L38.3477 14.2886C37.8919 15.0959 37.3646 15.7144 36.7656 16.144C36.1797 16.5737 35.5742 16.7886 34.9492 16.7886C33.3737 16.7886 31.8372 16.7365 30.3398 16.6323C28.8555 16.5151 27.3776 16.3849 25.9062 16.2417C24.4349 16.0985 22.9375 15.9748 21.4141 15.8706C19.8906 15.7534 18.3021 15.6948 16.6484 15.6948C15.2422 15.6948 14.0898 15.9097 13.1914 16.3394C12.293 16.756 11.5898 17.3094 11.082 17.9995C10.5742 18.6766 10.2031 19.4123 9.96875 20.2065C9.7474 20.9878 9.61068 21.756 9.55859 22.5112C9.50651 23.2534 9.48047 23.8914 9.48047 24.4253C9.48047 26.0789 9.35677 27.4526 9.10938 28.5464C8.86198 29.6401 8.58854 30.5386 8.28906 31.2417C7.98958 31.9318 7.73568 32.5047 7.52734 32.9604C7.33203 33.4032 7.28646 33.8003 7.39062 34.1519L9.73438 42.7456C9.8776 43.2534 10.0599 43.618 10.2812 43.8394C10.5026 44.0607 10.7695 44.1714 11.082 44.1714ZM46.4336 12.3159C46.082 12.3159 45.7826 12.1987 45.5352 11.9644C45.2878 11.717 45.1641 11.4175 45.1641 11.0659C45.1641 10.7144 45.2878 10.4149 45.5352 10.1675C45.7826 9.92008 46.082 9.79639 46.4336 9.79639C46.7852 9.79639 47.0846 9.92008 47.332 10.1675C47.5794 10.4149 47.7031 10.7144 47.7031 11.0659C47.7031 11.4175 47.5794 11.717 47.332 11.9644C47.0846 12.1987 46.7852 12.3159 46.4336 12.3159Z" fill="black"/>
</svg>
