<svg width="48" height="48" viewBox="0 0 48 48" fill="none" xmlns="http://www.w3.org/2000/svg">
    <path d="M11.7422 26.6094C11.2734 26.6094 10.8828 26.4531 10.5703 26.1406C10.2578 25.8281 10.1016 25.4375 10.1016 24.9688C10.1016 24.5156 10.2578 24.1328 10.5703 23.8203C10.8828 23.5078 11.2734 23.3516 11.7422 23.3516H22.3594V9.17188C22.3594 8.71875 22.5156 8.33594 22.8281 8.02344C23.1406 7.71094 23.5234 7.55469 23.9766 7.55469C24.4453 7.55469 24.8359 7.71094 25.1484 8.02344C25.4609 8.33594 25.6172 8.71875 25.6172 9.17188V24.9688C25.6172 25.4375 25.4609 25.8281 25.1484 26.1406C24.8359 26.4531 24.4453 26.6094 23.9766 26.6094H11.7422ZM24 47.9844C20.7031 47.9844 17.6094 47.3594 14.7188 46.1094C11.8281 44.875 9.28906 43.1641 7.10156 40.9766C4.91406 38.7891 3.19531 36.25 1.94531 33.3594C0.710938 30.4688 0.09375 27.375 0.09375 24.0781C0.09375 20.7812 0.710938 17.6875 1.94531 14.7969C3.19531 11.9062 4.91406 9.36719 7.10156 7.17969C9.28906 4.97656 11.8281 3.25781 14.7188 2.02344C17.6094 0.789062 20.7031 0.171875 24 0.171875C27.2969 0.171875 30.3906 0.789062 33.2812 2.02344C36.1719 3.25781 38.7109 4.97656 40.8984 7.17969C43.0859 9.36719 44.7969 11.9062 46.0312 14.7969C47.2812 17.6875 47.9062 20.7812 47.9062 24.0781C47.9062 27.375 47.2812 30.4688 46.0312 33.3594C44.7969 36.25 43.0859 38.7891 40.8984 40.9766C38.7109 43.1641 36.1719 44.875 33.2812 46.1094C30.3906 47.3594 27.2969 47.9844 24 47.9844ZM24 44C26.75 44 29.3281 43.4844 31.7344 42.4531C34.1406 41.4219 36.2578 39.9922 38.0859 38.1641C39.9141 36.3359 41.3438 34.2188 42.375 31.8125C43.4062 29.4062 43.9219 26.8281 43.9219 24.0781C43.9219 21.3281 43.4062 18.75 42.375 16.3438C41.3438 13.9219 39.9141 11.8047 38.0859 9.99219C36.2578 8.16406 34.1406 6.73438 31.7344 5.70312C29.3281 4.67188 26.75 4.15625 24 4.15625C21.25 4.15625 18.6719 4.67188 16.2656 5.70312C13.8594 6.73438 11.7422 8.16406 9.91406 9.99219C8.08594 11.8047 6.65625 13.9219 5.625 16.3438C4.59375 18.75 4.07812 21.3281 4.07812 24.0781C4.07812 26.8281 4.59375 29.4062 5.625 31.8125C6.65625 34.2188 8.08594 36.3359 9.91406 38.1641C11.7422 39.9922 13.8594 41.4219 16.2656 42.4531C18.6719 43.4844 21.25 44 24 44Z" fill="black"/>
</svg>
