<svg width="61" height="47" viewBox="0 0 61 47" fill="none" xmlns="http://www.w3.org/2000/svg">
    <path d="M6.5 22.5469C5.39062 22.5469 4.375 22.2734 3.45312 21.7266C2.53125 21.1797 1.79688 20.4453 1.25 19.5234C0.703125 18.6016 0.429688 17.5781 0.429688 16.4531C0.429688 15.3438 0.703125 14.3359 1.25 13.4297C1.79688 12.5078 2.53125 11.7734 3.45312 11.2266C4.375 10.6797 5.39062 10.4062 6.5 10.4062C7.60938 10.4062 8.625 10.6875 9.54688 11.25C10.4688 11.7969 11.1953 12.5312 11.7266 13.4531C12.2734 14.3594 12.5469 15.3594 12.5469 16.4531C12.5469 17.5781 12.2734 18.6016 11.7266 19.5234C11.1953 20.4453 10.4688 21.1797 9.54688 21.7266C8.625 22.2734 7.60938 22.5469 6.5 22.5469ZM6.5 18.8906C7.17188 18.8906 7.73438 18.6562 8.1875 18.1875C8.65625 17.7031 8.89062 17.125 8.89062 16.4531C8.89062 15.8125 8.65625 15.2578 8.1875 14.7891C7.71875 14.3047 7.15625 14.0625 6.5 14.0625C5.84375 14.0625 5.27344 14.2969 4.78906 14.7656C4.32031 15.2344 4.08594 15.7969 4.08594 16.4531C4.08594 17.125 4.32031 17.7031 4.78906 18.1875C5.27344 18.6562 5.84375 18.8906 6.5 18.8906ZM30.5 12.7969C29.3906 12.7969 28.375 12.5234 27.4531 11.9766C26.5312 11.4297 25.7969 10.7031 25.25 9.79688C24.7031 8.875 24.4297 7.85156 24.4297 6.72656C24.4297 5.61719 24.6953 4.60938 25.2266 3.70312C25.7734 2.78125 26.5078 2.04687 27.4297 1.5C28.3516 0.953125 29.375 0.679688 30.5 0.679688C31.6094 0.679688 32.6172 0.953125 33.5234 1.5C34.4453 2.04687 35.1797 2.78125 35.7266 3.70312C36.2734 4.60938 36.5469 5.61719 36.5469 6.72656C36.5469 7.85156 36.2734 8.875 35.7266 9.79688C35.1797 10.7031 34.4453 11.4297 33.5234 11.9766C32.6172 12.5234 31.6094 12.7969 30.5 12.7969ZM30.5 9.14062C31.1719 9.14062 31.7344 8.90625 32.1875 8.4375C32.6562 7.95312 32.8906 7.38281 32.8906 6.72656C32.8906 6.08594 32.6484 5.53125 32.1641 5.0625C31.6953 4.57812 31.1406 4.33594 30.5 4.33594C29.8438 4.33594 29.2734 4.57031 28.7891 5.03906C28.3203 5.49219 28.0859 6.05469 28.0859 6.72656C28.0859 7.38281 28.3203 7.95312 28.7891 8.4375C29.2734 8.90625 29.8438 9.14062 30.5 9.14062ZM54.4766 22.5469C53.3672 22.5469 52.3516 22.2734 51.4297 21.7266C50.5078 21.1797 49.7734 20.4453 49.2266 19.5234C48.6953 18.6016 48.4297 17.5781 48.4297 16.4531C48.4297 15.3594 48.6953 14.3594 49.2266 13.4531C49.7734 12.5312 50.5078 11.7969 51.4297 11.25C52.3516 10.6875 53.3672 10.4062 54.4766 10.4062C55.5859 10.4062 56.6016 10.6797 57.5234 11.2266C58.4453 11.7734 59.1797 12.5078 59.7266 13.4297C60.2734 14.3359 60.5469 15.3438 60.5469 16.4531C60.5469 17.5781 60.2734 18.6016 59.7266 19.5234C59.1797 20.4453 58.4453 21.1797 57.5234 21.7266C56.6016 22.2734 55.5859 22.5469 54.4766 22.5469ZM54.4766 18.8906C55.1328 18.8906 55.6953 18.6562 56.1641 18.1875C56.6484 17.7031 56.8906 17.125 56.8906 16.4531C56.8906 15.7969 56.6484 15.2344 56.1641 14.7656C55.6953 14.2969 55.1328 14.0625 54.4766 14.0625C53.8203 14.0625 53.2578 14.3047 52.7891 14.7891C52.3203 15.2578 52.0859 15.8125 52.0859 16.4531C52.0859 17.125 52.3125 17.7031 52.7656 18.1875C53.2344 18.6562 53.8047 18.8906 54.4766 18.8906ZM9.28906 21L11.1641 18L18.0078 22.2188C18.3984 22.4688 18.7188 22.5703 18.9688 22.5234C19.2188 22.4609 19.4531 22.2812 19.6719 21.9844L27.7578 11.1328L31.1094 12.5625L22.25 24.4453C21.4688 25.4766 20.5391 26.0391 19.4609 26.1328C18.3828 26.2266 17.4688 26.0391 16.7188 25.5703L9.28906 21ZM51.6875 20.9766L44.0938 25.6406C43.4219 26.0625 42.5547 26.2266 41.4922 26.1328C40.4297 26.0391 39.5234 25.4844 38.7734 24.4688L29.8906 12.5391L33.2188 11.0859L41.2344 21.8906C41.4688 22.2031 41.7188 22.3906 41.9844 22.4531C42.25 22.5156 42.5938 22.4141 43.0156 22.1484L49.8125 17.9766L51.6875 20.9766ZM12.2422 38.1797V34.6406H48.7578V38.1797H12.2422ZM6.38281 21.5156L9.66406 20.0156L14.6797 40.5469C15.0703 42.1719 16.125 42.9844 17.8438 42.9844H43.1562C44.8594 42.9844 45.9141 42.1719 46.3203 40.5469L51.3125 20.0156L54.6172 21.5156L49.8359 40.9922C49.3828 42.8359 48.6328 44.2188 47.5859 45.1406C46.5391 46.0625 45.0469 46.5234 43.1094 46.5234H17.8672C15.9297 46.5234 14.4375 46.0625 13.3906 45.1406C12.3594 44.2188 11.6172 42.8359 11.1641 40.9922L6.38281 21.5156Z" fill="black"/>
</svg>
