<svg width="40" height="52" viewBox="0 0 40 52" fill="none" xmlns="http://www.w3.org/2000/svg">
    <path d="M18.8984 51.3047C15.1953 51.3047 11.9609 50.6406 9.19531 49.3125C6.44531 47.9844 4.30469 46.125 2.77344 43.7344C1.24219 41.3438 0.476562 38.5469 0.476562 35.3438C0.476562 33.6562 0.609375 32.1562 0.875 30.8438C1.15625 29.5312 1.49219 28.3516 1.88281 27.3047C2.28906 26.2422 2.69531 25.2422 3.10156 24.3047C3.50781 23.3672 3.84375 22.4375 4.10938 21.5156C4.375 20.5938 4.50781 19.6094 4.50781 18.5625C4.50781 18.0469 4.47656 17.4844 4.41406 16.875C4.36719 16.25 4.34375 15.7891 4.34375 15.4922C4.34375 14.9766 4.49219 14.5547 4.78906 14.2266C5.08594 13.8984 5.47656 13.7344 5.96094 13.7344C6.78906 13.7344 7.625 13.9844 8.46875 14.4844C9.32812 14.9844 10.0938 15.6797 10.7656 16.5703C11.4531 17.4453 11.9766 18.4609 12.3359 19.6172L11.1641 19.8516C11.5391 19.1953 11.7734 18.6172 11.8672 18.1172C11.9766 17.6016 12.0312 17.0781 12.0312 16.5469C12.0156 15 11.7266 13.5312 11.1641 12.1406C10.6172 10.75 9.91406 9.42969 9.05469 8.17969C8.21094 6.92969 7.32812 5.75 6.40625 4.64062C6.15625 4.35938 5.96875 4.07031 5.84375 3.77344C5.71875 3.47656 5.65625 3.17969 5.65625 2.88281C5.65625 2.13281 5.97656 1.57031 6.61719 1.19531C7.27344 0.804687 8.15625 0.609375 9.26562 0.609375C11.3281 0.609375 13.5 0.859375 15.7812 1.35938C18.0781 1.84375 20.3516 2.60937 22.6016 3.65625C24.8672 4.6875 27.0156 6.00781 29.0469 7.61719C31.0781 9.21094 32.875 11.1094 34.4375 13.3125C36.0156 15.5 37.2578 18.0078 38.1641 20.8359C39.0703 23.6641 39.5234 26.8281 39.5234 30.3281C39.5234 33.4688 39.0312 36.3281 38.0469 38.9062C37.0781 41.4844 35.6797 43.6953 33.8516 45.5391C32.0234 47.3828 29.8438 48.8047 27.3125 49.8047C24.7969 50.8047 21.9922 51.3047 18.8984 51.3047ZM19.1328 48.0234C22.5078 48.0234 25.4688 47.2734 28.0156 45.7734C30.5625 44.2891 32.5391 42.2109 33.9453 39.5391C35.3672 36.8672 36.0781 33.7578 36.0781 30.2109C36.0781 27.2109 35.6562 24.3906 34.8125 21.75C33.9688 19.0938 32.7422 16.6797 31.1328 14.5078C29.5234 12.3359 27.5781 10.4609 25.2969 8.88281C23.0312 7.28906 20.4609 6.04688 17.5859 5.15625C14.7266 4.26562 11.6094 3.78125 8.23438 3.70312L8.86719 2.95312C10.1328 4.125 11.2188 5.45313 12.125 6.9375C13.0312 8.42187 13.7266 10.0156 14.2109 11.7188C14.7109 13.4062 14.9609 15.1484 14.9609 16.9453C14.9609 17.6953 14.875 18.5156 14.7031 19.4062C14.5469 20.2812 14.3203 21.1172 14.0234 21.9141C13.7422 22.7109 13.3984 23.3672 12.9922 23.8828C12.6016 24.3828 12.1719 24.6328 11.7031 24.6328C11.5156 24.6328 11.3594 24.5781 11.2344 24.4688C11.1094 24.3438 11.0234 24.1562 10.9766 23.9062C10.7266 22.8281 10.4141 21.8828 10.0391 21.0703C9.66406 20.2422 9.21875 19.5312 8.70312 18.9375C8.20312 18.3281 7.63281 17.8359 6.99219 17.4609L7.53125 16.5234C7.64062 16.8828 7.73438 17.2656 7.8125 17.6719C7.89062 18.0781 7.92969 18.5078 7.92969 18.9609C7.92969 20.1797 7.78906 21.2891 7.50781 22.2891C7.24219 23.2734 6.89844 24.2266 6.47656 25.1484C6.07031 26.0703 5.65625 27.0234 5.23438 28.0078C4.82812 28.9922 4.48438 30.0781 4.20312 31.2656C3.92188 32.4531 3.78125 33.8125 3.78125 35.3438C3.78125 37.875 4.42188 40.0938 5.70312 42C6.98438 43.8906 8.77344 45.3672 11.0703 46.4297C13.3828 47.4922 16.0703 48.0234 19.1328 48.0234ZM19.4375 44.7188C17.25 44.7188 15.4844 44.1172 14.1406 42.9141C12.8125 41.6953 12.1484 40.1016 12.1484 38.1328C12.1484 37.1016 12.2969 36.2188 12.5938 35.4844C12.9062 34.7344 13.2656 34.0625 13.6719 33.4688C14.0781 32.8594 14.4531 32.2812 14.7969 31.7344C15.1406 31.1719 15.3594 30.5547 15.4531 29.8828C15.4688 29.7734 15.5078 29.7109 15.5703 29.6953C15.6484 29.6641 15.7266 29.6797 15.8047 29.7422C16.3516 30.2266 16.8047 30.7656 17.1641 31.3594C17.5391 31.9375 17.875 32.5625 18.1719 33.2344C18.7969 32.3906 19.2422 31.1484 19.5078 29.5078C19.7734 27.8516 19.8047 26.0625 19.6016 24.1406C19.5859 24.0312 19.6094 23.9531 19.6719 23.9062C19.7344 23.8438 19.8203 23.8359 19.9297 23.8828C21.6484 24.6953 23.0859 25.7578 24.2422 27.0703C25.3984 28.3828 26.2656 29.8125 26.8438 31.3594C27.4375 32.9062 27.7344 34.4453 27.7344 35.9766C27.7344 37.5234 27.4297 38.9609 26.8203 40.2891C26.2109 41.6172 25.2891 42.6875 24.0547 43.5C22.8359 44.3125 21.2969 44.7188 19.4375 44.7188Z" fill="black"/>
</svg>
