<svg width="74" height="25" viewBox="0 0 74 25" fill="none" xmlns="http://www.w3.org/2000/svg">
    <path d="M37 9.09351C36.125 9.09351 35.4922 9.53882 35.1016 10.4294L32.5469 16.031C31.6094 18.0623 30.4375 19.7185 29.0312 20.9998C27.6406 22.281 26.0859 23.2263 24.3672 23.8357C22.6484 24.4451 20.8516 24.7498 18.9766 24.7498C14.8359 24.7498 11.3984 23.531 8.66406 21.0935C5.92969 18.656 4.23438 15.1951 3.57812 10.7107L3.13281 7.80444C2.97656 6.74194 2.70312 5.89038 2.3125 5.24976C1.9375 4.60913 1.58594 4.07007 1.25781 3.63257C0.929688 3.17944 0.765625 2.72632 0.765625 2.27319C0.765625 1.66382 0.976562 1.18726 1.39844 0.843506C1.83594 0.499756 2.46094 0.327881 3.27344 0.327881C5.72656 0.327881 8.07812 0.366943 10.3281 0.445068C12.5781 0.523193 14.6406 0.632568 16.5156 0.773193C18.3906 0.913818 19.9922 1.08569 21.3203 1.28882C23.4141 1.60132 25.2188 1.95288 26.7344 2.34351C28.2656 2.71851 29.6094 3.08569 30.7656 3.44507C31.9375 3.80444 33.0156 4.10132 34 4.33569C34.9844 4.55444 35.9844 4.66382 37 4.66382C38 4.66382 38.9922 4.55444 39.9766 4.33569C40.9609 4.10132 42.0312 3.80444 43.1875 3.44507C44.3594 3.08569 45.7031 2.71851 47.2188 2.34351C48.75 1.95288 50.5625 1.60132 52.6562 1.28882C53.9844 1.08569 55.5859 0.913818 57.4609 0.773193C59.3359 0.632568 61.3984 0.523193 63.6484 0.445068C65.8984 0.366943 68.2578 0.327881 70.7266 0.327881C71.5234 0.327881 72.1328 0.499756 72.5547 0.843506C72.9922 1.18726 73.2109 1.66382 73.2109 2.27319C73.2109 2.72632 73.0469 3.17944 72.7188 3.63257C72.3906 4.07007 72.0391 4.60913 71.6641 5.24976C71.2891 5.89038 71.0234 6.74194 70.8672 7.80444L70.4219 10.7107C69.75 15.1951 68.0469 18.656 65.3125 21.0935C62.5781 23.531 59.1484 24.7498 55.0234 24.7498C53.1328 24.7498 51.3281 24.4451 49.6094 23.8357C47.8906 23.2263 46.3281 22.281 44.9219 20.9998C43.5312 19.7185 42.3672 18.0623 41.4297 16.031L38.8984 10.4294C38.4922 9.53882 37.8594 9.09351 37 9.09351ZM19 21.2107C21.2656 21.2107 23.2031 20.7263 24.8125 19.7576C26.4375 18.7888 27.6719 17.4919 28.5156 15.8669C29.375 14.2419 29.8047 12.4294 29.8047 10.4294C29.8047 8.46069 28.5078 6.97632 25.9141 5.97632C23.3203 4.96069 19.4062 4.45288 14.1719 4.45288C11.7031 4.45288 9.89062 4.78101 8.73438 5.43726C7.57812 6.07788 7 7.05444 7 8.36694C7 10.8826 7.46094 13.1091 8.38281 15.0466C9.32031 16.9685 10.6797 18.4763 12.4609 19.5701C14.2422 20.6638 16.4219 21.2107 19 21.2107ZM54.9766 21.2107C57.5547 21.2107 59.7344 20.6638 61.5156 19.5701C63.3125 18.4763 64.6719 16.9685 65.5938 15.0466C66.5156 13.1091 66.9766 10.8826 66.9766 8.36694C66.9766 7.05444 66.3984 6.07788 65.2422 5.43726C64.1016 4.78101 62.2891 4.45288 59.8047 4.45288C54.5703 4.45288 50.6562 4.96069 48.0625 5.97632C45.4688 6.97632 44.1719 8.46069 44.1719 10.4294C44.1719 12.4294 44.6016 14.2419 45.4609 15.8669C46.3203 17.4919 47.5547 18.7888 49.1641 19.7576C50.7734 20.7263 52.7109 21.2107 54.9766 21.2107Z" fill="black"/>
</svg>
