<svg width="24" height="22" viewBox="0 0 24 22" fill="none" xmlns="http://www.w3.org/2000/svg">
    <path d="M12 21.6602C11.8828 21.6602 11.7422 21.625 11.5781 21.5547C11.4219 21.4922 11.2812 21.4219 11.1562 21.3438C8.95312 19.9375 7.04297 18.4648 5.42578 16.9258C3.80859 15.3789 2.55859 13.793 1.67578 12.168C0.800781 10.5352 0.363281 8.88672 0.363281 7.22266C0.363281 6.18359 0.527344 5.23438 0.855469 4.375C1.19141 3.50781 1.65625 2.75781 2.25 2.125C2.84375 1.49219 3.53516 1.00391 4.32422 0.660156C5.11328 0.316406 5.96875 0.144531 6.89062 0.144531C8.03906 0.144531 9.04688 0.4375 9.91406 1.02344C10.7812 1.60938 11.4766 2.38281 12 3.34375C12.5312 2.375 13.2305 1.60156 14.0977 1.02344C14.9648 0.4375 15.9688 0.144531 17.1094 0.144531C18.0312 0.144531 18.8867 0.316406 19.6758 0.660156C20.4727 1.00391 21.1641 1.49219 21.75 2.125C22.3438 2.75781 22.8047 3.50781 23.1328 4.375C23.4688 5.23438 23.6367 6.18359 23.6367 7.22266C23.6367 8.88672 23.1953 10.5352 22.3125 12.168C21.4375 13.793 20.1914 15.3789 18.5742 16.9258C16.9648 18.4648 15.0586 19.9375 12.8555 21.3438C12.7305 21.4219 12.5859 21.4922 12.4219 21.5547C12.2656 21.625 12.125 21.6602 12 21.6602Z" fill="white"/>
</svg>
