<svg width="19" height="15" viewBox="0 0 19 15" fill="none" xmlns="http://www.w3.org/2000/svg">
    <path d="M9.49219 8.23438C9.23698 8.23438 8.98698 8.1276 8.74219 7.91406L0.9375 1.03906C1.35417 0.768229 1.88281 0.632812 2.52344 0.632812H16.4688C17.1094 0.632812 17.6354 0.768229 18.0469 1.03906L10.2422 7.91406C10.0026 8.1276 9.7526 8.23438 9.49219 8.23438ZM0.273438 12.8359C0.210938 12.6901 0.161458 12.5234 0.125 12.3359C0.0885417 12.1484 0.0703125 11.9297 0.0703125 11.6797V3.05469C0.0703125 2.78385 0.0885417 2.55208 0.125 2.35938C0.166667 2.16667 0.210938 2.03125 0.257812 1.95312L6.05469 7.0625L0.273438 12.8359ZM2.28906 14.1016C2.0026 14.1016 1.7474 14.0703 1.52344 14.0078C1.30469 13.9453 1.1224 13.862 0.976562 13.7578L6.92188 7.8125L8.0625 8.82812C8.29167 9.02604 8.52604 9.17708 8.76562 9.28125C9.00521 9.38021 9.2474 9.42969 9.49219 9.42969C9.73698 9.42969 9.97917 9.38021 10.2188 9.28125C10.4635 9.17708 10.7005 9.02604 10.9297 8.82812L12.0703 7.8125L18.0156 13.7578C17.8698 13.862 17.6849 13.9453 17.4609 14.0078C17.2422 14.0703 16.9896 14.1016 16.7031 14.1016H2.28906ZM18.7188 12.8359L12.9375 7.0625L18.7344 1.95312C18.776 2.03125 18.8177 2.16667 18.8594 2.35938C18.901 2.55208 18.9219 2.78385 18.9219 3.05469V11.6797C18.9219 11.9297 18.901 12.1484 18.8594 12.3359C18.8229 12.5234 18.776 12.6901 18.7188 12.8359Z" fill="#328BFE"/>
</svg>
