<svg width="46" height="57" viewBox="0 0 46 57" fill="none" xmlns="http://www.w3.org/2000/svg">
    <path d="M19.9297 13.9138C18.9922 13.9138 18.1406 13.6873 17.375 13.2341C16.6094 12.7654 15.9922 12.1482 15.5234 11.3826C15.0703 10.6169 14.8438 9.76538 14.8438 8.82788C14.8438 7.89038 15.0703 7.03882 15.5234 6.27319C15.9922 5.49194 16.6094 4.87476 17.375 4.42163C18.1406 3.95288 18.9922 3.71851 19.9297 3.71851C20.8672 3.71851 21.7266 3.95288 22.5078 4.42163C23.2891 4.87476 23.9062 5.49194 24.3594 6.27319C24.8281 7.03882 25.0625 7.89038 25.0625 8.82788C25.0625 9.76538 24.8281 10.6169 24.3594 11.3826C23.9062 12.1482 23.2891 12.7654 22.5078 13.2341C21.7266 13.6873 20.8672 13.9138 19.9297 13.9138ZM38.0938 16.3748C38.7656 16.3748 39.3359 16.6169 39.8047 17.1013C40.2891 17.5857 40.5312 18.1638 40.5312 18.8357C40.5312 19.4919 40.2891 20.0544 39.8047 20.5232C39.3359 20.9919 38.7656 21.2263 38.0938 21.2263H23.5859C23.2422 21.2263 22.9453 21.3513 22.6953 21.6013C22.4609 21.8357 22.3438 22.1248 22.3438 22.4685V31.4451C22.3438 32.8201 22.6094 34.1091 23.1406 35.3123L26.2578 42.4138L31.7422 52.8669C32.1016 53.5232 32.2031 54.1482 32.0469 54.7419C31.8906 55.3357 31.5703 55.7888 31.0859 56.1013C30.5391 56.4451 29.8984 56.5544 29.1641 56.4294C28.4453 56.3201 27.8828 55.8826 27.4766 55.1169L22.0156 44.8279L18.5703 38.8279C18.1797 38.1404 17.5781 37.7498 16.7656 37.656C15.9531 37.5623 15.2578 37.7498 14.6797 38.2185L9.00781 43.0701C8.66406 43.3669 8.41406 43.6404 8.25781 43.8904C8.11719 44.1404 7.98438 44.4919 7.85938 44.9451L5.25781 54.6013C5.05469 55.3357 4.67188 55.8435 4.10938 56.1248C3.54688 56.4216 2.97656 56.5154 2.39844 56.406C1.78906 56.3123 1.28125 55.9998 0.875 55.4685C0.46875 54.9529 0.382812 54.2498 0.617188 53.3591L3.35938 43.0701C3.5625 42.3044 3.82812 41.656 4.15625 41.1248C4.5 40.5779 4.91406 40.0544 5.39844 39.5544L12.6406 32.3591V22.4685C12.6406 22.1248 12.5234 21.8357 12.2891 21.6013C12.0547 21.3513 11.7656 21.2263 11.4219 21.2263H3.875C2.71875 21.2263 1.84375 20.9373 1.25 20.3591C0.65625 19.7654 0.34375 19.0623 0.3125 18.2498C0.28125 17.4216 0.539062 16.6482 1.08594 15.9294C1.63281 15.2107 2.46094 14.7263 3.57031 14.4763L10.4844 12.8826C11.3594 12.6794 12.0469 12.7576 12.5469 13.1169C13.0625 13.4607 13.3984 13.906 13.5547 14.4529C13.6797 14.9373 13.6328 15.4216 13.4141 15.906C13.1953 16.3904 12.7969 16.7341 12.2188 16.9373L11.4922 16.3748H38.0938ZM42.9922 18.8357C42.9922 17.1326 42.875 15.4373 42.6406 13.7498C42.4062 12.0466 42.0234 10.2732 41.4922 8.42944C40.9766 6.57007 40.2969 4.56226 39.4531 2.40601C39.3125 2.03101 39.3047 1.67944 39.4297 1.35132C39.5547 1.00757 39.7891 0.765381 40.1328 0.624756C40.4766 0.484131 40.8047 0.476318 41.1172 0.601318C41.4453 0.726318 41.6953 0.960693 41.8672 1.30444C43.2266 4.36694 44.1953 7.26538 44.7734 9.99976C45.3672 12.7341 45.6641 15.6794 45.6641 18.8357C45.6641 22.0857 45.3672 25.0857 44.7734 27.8357C44.1953 30.5701 43.2344 33.4138 41.8906 36.3669C41.7188 36.7107 41.4688 36.9451 41.1406 37.0701C40.8125 37.1951 40.4766 37.1873 40.1328 37.0466C39.8047 36.906 39.5703 36.6716 39.4297 36.3435C39.3047 35.9998 39.3125 35.6404 39.4531 35.2654C40.2969 33.1248 40.9766 31.1326 41.4922 29.2888C42.0234 27.4294 42.4062 25.656 42.6406 23.9685C42.875 22.2654 42.9922 20.5544 42.9922 18.8357Z" fill="black"/>
</svg>
