<svg width="20" height="29" viewBox="0 0 20 29" fill="none" xmlns="http://www.w3.org/2000/svg">
<mask id="path-1-outside-1_1349_560" maskUnits="userSpaceOnUse" x="0" y="0" width="20" height="29" fill="black">
<rect fill="white" width="20" height="29"/>
<path d="M7.29297 27.0547C7.10547 27.3047 6.89453 27.457 6.66016 27.5117C6.43359 27.5664 6.22656 27.543 6.03906 27.4414C5.85156 27.3477 5.71875 27.1914 5.64062 26.9727C5.57031 26.7539 5.59375 26.4922 5.71094 26.1875L9.20312 17.082H2.58203C2.33203 17.082 2.12891 17.0078 1.97266 16.8594C1.81641 16.7031 1.73828 16.5117 1.73828 16.2852C1.73828 16.043 1.83984 15.793 2.04297 15.5352L12.6953 1.84766C12.8828 1.59766 13.0898 1.44531 13.3164 1.39062C13.5508 1.32813 13.7617 1.34766 13.9492 1.44922C14.1367 1.54297 14.2656 1.70313 14.3359 1.92969C14.4141 2.14844 14.3945 2.40625 14.2773 2.70312L10.7852 11.8203H17.4062C17.6562 11.8203 17.8594 11.8945 18.0156 12.043C18.1719 12.1914 18.25 12.3789 18.25 12.6055C18.25 12.8477 18.1484 13.0977 17.9453 13.3555L7.29297 27.0547ZM7.98438 23.9023L7.65625 23.7266L15.3086 13.5664H8.07812L11.9922 5L12.3203 5.17578L4.66797 15.3359H11.9102L7.98438 23.9023Z"/>
</mask>
<path d="M7.29297 27.0547C7.10547 27.3047 6.89453 27.457 6.66016 27.5117C6.43359 27.5664 6.22656 27.543 6.03906 27.4414C5.85156 27.3477 5.71875 27.1914 5.64062 26.9727C5.57031 26.7539 5.59375 26.4922 5.71094 26.1875L9.20312 17.082H2.58203C2.33203 17.082 2.12891 17.0078 1.97266 16.8594C1.81641 16.7031 1.73828 16.5117 1.73828 16.2852C1.73828 16.043 1.83984 15.793 2.04297 15.5352L12.6953 1.84766C12.8828 1.59766 13.0898 1.44531 13.3164 1.39062C13.5508 1.32813 13.7617 1.34766 13.9492 1.44922C14.1367 1.54297 14.2656 1.70313 14.3359 1.92969C14.4141 2.14844 14.3945 2.40625 14.2773 2.70312L10.7852 11.8203H17.4062C17.6562 11.8203 17.8594 11.8945 18.0156 12.043C18.1719 12.1914 18.25 12.3789 18.25 12.6055C18.25 12.8477 18.1484 13.0977 17.9453 13.3555L7.29297 27.0547ZM7.98438 23.9023L7.65625 23.7266L15.3086 13.5664H8.07812L11.9922 5L12.3203 5.17578L4.66797 15.3359H11.9102L7.98438 23.9023Z" fill="#FFC107"/>
<path d="M7.29297 27.0547L6.50354 26.4408L6.4982 26.4477L6.49297 26.4547L7.29297 27.0547ZM6.66016 27.5117L6.43292 26.5378L6.42552 26.5396L6.66016 27.5117ZM6.03906 27.4414L6.51535 26.5621L6.50093 26.5543L6.48628 26.547L6.03906 27.4414ZM5.64062 26.9727L4.6886 27.2787L4.6935 27.2939L4.69888 27.309L5.64062 26.9727ZM5.71094 26.1875L6.64428 26.5465L6.64462 26.5456L5.71094 26.1875ZM9.20312 17.082L10.1368 17.4401L10.6577 16.082H9.20312V17.082ZM1.97266 16.8594L1.26555 17.5665L1.27461 17.5755L1.28391 17.5844L1.97266 16.8594ZM2.04297 15.5352L2.82847 16.154L2.83214 16.1493L2.04297 15.5352ZM12.6953 1.84766L13.4845 2.46183L13.49 2.45479L13.4953 2.44766L12.6953 1.84766ZM13.3164 1.39062L13.551 2.36271L13.5626 2.35992L13.5741 2.35686L13.3164 1.39062ZM13.9492 1.44922L13.4729 2.32851L13.4873 2.33632L13.502 2.34365L13.9492 1.44922ZM14.3359 1.92969L13.3809 2.22609L13.3871 2.2462L13.3942 2.26602L14.3359 1.92969ZM14.2773 2.70312L13.3471 2.33594L13.3435 2.34543L14.2773 2.70312ZM10.7852 11.8203L9.85132 11.4626L9.33127 12.8203H10.7852V11.8203ZM17.9453 13.3555L17.1598 12.7366L17.1559 12.7416L17.9453 13.3555ZM7.98438 23.9023L7.51215 24.7838L8.45014 25.2863L8.89346 24.319L7.98438 23.9023ZM7.65625 23.7266L6.85747 23.1249L6.15545 24.057L7.18403 24.608L7.65625 23.7266ZM15.3086 13.5664L16.1074 14.168L17.3137 12.5664H15.3086V13.5664ZM8.07812 13.5664L7.16857 13.1508L6.52178 14.5664H8.07812V13.5664ZM11.9922 5L12.4644 4.11852L11.5254 3.61546L11.0826 4.58442L11.9922 5ZM12.3203 5.17578L13.1191 5.7774L13.8211 4.84532L12.7925 4.2943L12.3203 5.17578ZM4.66797 15.3359L3.86919 14.7343L2.66289 16.3359H4.66797V15.3359ZM11.9102 15.3359L12.8192 15.7525L13.4684 14.3359H11.9102V15.3359ZM7.29297 27.0547L6.49297 26.4547C6.44795 26.5147 6.41792 26.5391 6.40865 26.5458C6.40181 26.5507 6.4109 26.543 6.43293 26.5379L6.66016 27.5117L6.88739 28.4856C7.41168 28.3632 7.80721 28.0357 8.09297 27.6547L7.29297 27.0547ZM6.66016 27.5117L6.42552 26.5396C6.41242 26.5428 6.42196 26.5386 6.44745 26.5415C6.47443 26.5446 6.49899 26.5533 6.51535 26.5621L6.03906 27.4414L5.56278 28.3207C5.98859 28.5513 6.45215 28.5906 6.8948 28.4838L6.66016 27.5117ZM6.03906 27.4414L6.48628 26.547C6.51023 26.559 6.53798 26.5795 6.56077 26.6063C6.58228 26.6316 6.58614 26.6469 6.58237 26.6363L5.64062 26.9727L4.69888 27.309C4.85353 27.742 5.14793 28.1139 5.59185 28.3358L6.03906 27.4414ZM5.64062 26.9727L6.59265 26.6666C6.60394 26.7017 6.6 26.718 6.60148 26.7015C6.60321 26.6822 6.61129 26.6323 6.64428 26.5465L5.71094 26.1875L4.77759 25.8285C4.61222 26.2585 4.52426 26.7674 4.6886 27.2787L5.64062 26.9727ZM5.71094 26.1875L6.64462 26.5456L10.1368 17.4401L9.20312 17.082L8.26944 16.7239L4.77725 25.8294L5.71094 26.1875ZM9.20312 17.082V16.082H2.58203V17.082V18.082H9.20312V17.082ZM2.58203 17.082V16.082C2.55614 16.082 2.56129 16.0783 2.58538 16.0871C2.59716 16.0914 2.61094 16.0978 2.62531 16.1067C2.63968 16.1156 2.65184 16.1253 2.66141 16.1344L1.97266 16.8594L1.28391 17.5844C1.65564 17.9375 2.1197 18.082 2.58203 18.082V17.082ZM1.97266 16.8594L2.67976 16.1523C2.68917 16.1617 2.70811 16.1849 2.72272 16.2207C2.73713 16.256 2.73828 16.2813 2.73828 16.2852H1.73828H0.738281C0.738281 16.7694 0.916515 17.2174 1.26555 17.5665L1.97266 16.8594ZM1.73828 16.2852H2.73828C2.73828 16.3356 2.71526 16.2977 2.82846 16.154L2.04297 15.5352L1.25748 14.9163C0.96443 15.2882 0.738281 15.7503 0.738281 16.2852H1.73828ZM2.04297 15.5352L2.83214 16.1493L13.4845 2.46183L12.6953 1.84766L11.9061 1.23348L1.2538 14.921L2.04297 15.5352ZM12.6953 1.84766L13.4953 2.44766C13.5426 2.38467 13.574 2.35862 13.5839 2.35134C13.5914 2.34582 13.5797 2.35579 13.551 2.36271L13.3164 1.39062L13.0818 0.418543C12.5625 0.543895 12.1746 0.875268 11.8953 1.24766L12.6953 1.84766ZM13.3164 1.39062L13.5741 2.35686C13.5936 2.35165 13.5859 2.3567 13.5582 2.35414C13.5448 2.3529 13.5294 2.35009 13.5134 2.34522C13.4974 2.34035 13.4837 2.33434 13.4729 2.32851L13.9492 1.44922L14.4255 0.569927C13.9822 0.329804 13.5033 0.305844 13.0587 0.42439L13.3164 1.39062ZM13.9492 1.44922L13.502 2.34365C13.4698 2.32756 13.435 2.30077 13.4075 2.26666C13.3818 2.23472 13.3774 2.21483 13.3809 2.22609L14.3359 1.92969L15.291 1.63329C15.1516 1.18409 14.8607 0.786919 14.3964 0.554792L13.9492 1.44922ZM14.3359 1.92969L13.3942 2.26602C13.3881 2.24907 13.3851 2.23417 13.3837 2.22311C13.3824 2.21233 13.383 2.20796 13.3827 2.21157C13.3821 2.22023 13.3772 2.25986 13.3472 2.33596L14.2773 2.70312L15.2075 3.07029C15.3803 2.63254 15.4634 2.11331 15.2777 1.59335L14.3359 1.92969ZM14.2773 2.70312L13.3435 2.34543L9.85132 11.4626L10.7852 11.8203L11.719 12.178L15.2112 3.06082L14.2773 2.70312ZM10.7852 11.8203V12.8203H17.4062V11.8203V10.8203H10.7852V11.8203ZM17.4062 11.8203V12.8203C17.4321 12.8203 17.427 12.824 17.4029 12.8152C17.3911 12.8109 17.3773 12.8045 17.363 12.7956C17.3486 12.7867 17.3364 12.7771 17.3269 12.768L18.0156 12.043L18.7044 11.318C18.3326 10.9648 17.8686 10.8203 17.4062 10.8203V11.8203ZM18.0156 12.043L17.3269 12.768C17.3103 12.7522 17.2861 12.7221 17.2683 12.6795C17.2511 12.6381 17.25 12.609 17.25 12.6055H18.25H19.25C19.25 12.1206 19.0705 11.6658 18.7044 11.318L18.0156 12.043ZM18.25 12.6055H17.25C17.25 12.555 17.273 12.5929 17.1598 12.7366L17.9453 13.3555L18.7308 13.9743C19.0239 13.6024 19.25 13.1403 19.25 12.6055H18.25ZM17.9453 13.3555L17.1559 12.7416L6.50354 26.4408L7.29297 27.0547L8.08239 27.6685L18.7347 13.9693L17.9453 13.3555ZM7.98438 23.9023L8.4566 23.0209L8.12847 22.8451L7.65625 23.7266L7.18403 24.608L7.51215 24.7838L7.98438 23.9023ZM7.65625 23.7266L8.45503 24.3282L16.1074 14.168L15.3086 13.5664L14.5098 12.9648L6.85747 23.1249L7.65625 23.7266ZM15.3086 13.5664V12.5664H8.07812V13.5664V14.5664H15.3086V13.5664ZM8.07812 13.5664L8.98768 13.982L12.9017 5.41558L11.9922 5L11.0826 4.58442L7.16857 13.1508L8.07812 13.5664ZM11.9922 5L11.52 5.88148L11.8481 6.05726L12.3203 5.17578L12.7925 4.2943L12.4644 4.11852L11.9922 5ZM12.3203 5.17578L11.5215 4.57416L3.86919 14.7343L4.66797 15.3359L5.46675 15.9376L13.1191 5.7774L12.3203 5.17578ZM4.66797 15.3359V16.3359H11.9102V15.3359V14.3359H4.66797V15.3359ZM11.9102 15.3359L11.0011 14.9193L7.07529 23.4857L7.98438 23.9023L8.89346 24.319L12.8192 15.7525L11.9102 15.3359Z" fill="#FFC107" mask="url(#path-1-outside-1_1349_560)"/>
</svg>
