<svg width="32" height="29" viewBox="0 0 32 29" fill="none" xmlns="http://www.w3.org/2000/svg">
<path d="M6.48438 28.1914C6.01562 28.1914 5.62891 28.0625 5.32422 27.8047C5.01953 27.5469 4.79688 27.1602 4.65625 26.6445L3.20312 21.2422C3.10938 20.8906 3.08984 20.5781 3.14453 20.3047C3.19922 20.0234 3.29297 19.7344 3.42578 19.4375C3.55859 19.1406 3.70312 18.8047 3.85938 18.4297C4.01562 18.0469 4.14844 17.5859 4.25781 17.0469C4.36719 16.5078 4.42188 15.8477 4.42188 15.0664C4.42188 14.8945 4.42188 14.6758 4.42188 14.4102C4.42969 14.1445 4.44141 13.8281 4.45703 13.4609C4.46484 13.125 4.39844 12.8438 4.25781 12.6172C4.11719 12.3828 3.88672 12.2031 3.56641 12.0781C2.53516 11.6797 1.71094 11.0156 1.09375 10.0859C0.484375 9.14844 0.179688 8.04688 0.179688 6.78125C0.179688 5.64063 0.449219 4.63672 0.988281 3.76953C1.52734 2.89453 2.27344 2.21094 3.22656 1.71875C4.1875 1.22656 5.29297 0.980469 6.54297 0.980469C7.15234 0.980469 7.79297 1.04688 8.46484 1.17969C9.13672 1.30469 9.83203 1.51172 10.5508 1.80078C10.832 1.91797 11.0117 2.08594 11.0898 2.30469C11.168 2.52344 11.1641 2.73828 11.0781 2.94922C11 3.16016 10.8555 3.31641 10.6445 3.41797C10.4414 3.51953 10.1875 3.51172 9.88281 3.39453C9.26562 3.14453 8.68359 2.96484 8.13672 2.85547C7.59766 2.73828 7.06641 2.67969 6.54297 2.67969C5.62891 2.67969 4.82031 2.85547 4.11719 3.20703C3.42188 3.55078 2.875 4.03125 2.47656 4.64844C2.07812 5.26563 1.87891 5.97656 1.87891 6.78125C1.87891 7.6875 2.10938 8.47656 2.57031 9.14844C3.03125 9.8125 3.62109 10.2812 4.33984 10.5547C4.69922 10.7031 4.97656 10.7461 5.17188 10.6836C5.375 10.6211 5.58984 10.4648 5.81641 10.2148C6.22266 9.73828 6.76172 9.34375 7.43359 9.03125C8.10547 8.71094 8.96094 8.55078 10 8.55078C11.0938 8.55078 12.0547 8.58594 12.8828 8.65625C13.7109 8.71875 14.5078 8.79297 15.2734 8.87891C16.0391 8.96484 16.8594 9.04297 17.7344 9.11328C18.6172 9.17578 19.6484 9.20703 20.8281 9.20703C21.0859 9.20703 21.3125 9.09375 21.5078 8.86719C21.7031 8.63281 21.9062 8.31641 22.1172 7.91797L22.5625 7.14453C22.7578 6.79297 22.9766 6.43359 23.2188 6.06641C23.4609 5.69922 23.7227 5.33984 24.0039 4.98828C24.2852 4.63672 24.5859 4.30078 24.9062 3.98047C25.1094 3.24609 25.3945 2.65625 25.7617 2.21094C26.1367 1.75781 26.4531 1.53125 26.7109 1.53125C26.9766 1.53125 27.2734 1.76172 27.6016 2.22266C27.9297 2.67578 28.1836 3.23437 28.3633 3.89844C28.9805 4.34375 29.5508 4.80859 30.0742 5.29297C30.5977 5.77734 31.0156 6.27344 31.3281 6.78125C31.6484 7.28906 31.8086 7.79688 31.8086 8.30469C31.8086 8.64844 31.6484 9.01172 31.3281 9.39453C31.0156 9.76953 30.582 10.0977 30.0273 10.3789C29.4727 10.6602 28.8359 10.8281 28.1172 10.8828C28.0938 12.0234 27.9922 12.9844 27.8125 13.7656C27.6328 14.5469 27.3984 15.2109 27.1094 15.7578C26.8281 16.2969 26.5195 16.7695 26.1836 17.1758C25.8477 17.5742 25.5117 17.9609 25.1758 18.3359C24.8477 18.7109 24.543 19.125 24.2617 19.5781C23.9805 20.0234 23.7539 20.5625 23.582 21.1953C23.418 21.8203 23.3359 22.5938 23.3359 23.5156V24.8047C23.8594 24.875 24.2461 25.0508 24.4961 25.332C24.7539 25.6211 24.8828 25.9961 24.8828 26.457C24.8828 26.9961 24.7031 27.418 24.3438 27.7227C23.9922 28.0352 23.5039 28.1914 22.8789 28.1914H21.4844C20.8594 28.1914 20.3789 28.043 20.043 27.7461C19.7148 27.4492 19.5508 27 19.5508 26.3984C19.5508 26.0312 19.5625 25.6328 19.5859 25.2031C19.6172 24.7734 19.6445 24.3281 19.668 23.8672C19.6992 23.4141 19.7148 22.9531 19.7148 22.4844C19.7148 21.8984 19.6562 21.3359 19.5391 20.7969C19.4297 20.25 19.3008 19.7305 19.1523 19.2383C18.5977 19.4023 17.8398 19.5508 16.8789 19.6836C15.9258 19.8164 14.9648 19.8828 13.9961 19.8828C13.168 19.8828 12.3711 19.8086 11.6055 19.6602C10.8477 19.5117 9.9375 19.2422 8.875 18.8516C8.50781 19.4297 8.25391 19.9375 8.11328 20.375C7.97266 20.8125 7.90234 21.3242 7.90234 21.9102V24.7461C8.51172 24.8633 8.97266 25.0781 9.28516 25.3906C9.59766 25.7031 9.75391 26.0586 9.75391 26.457C9.75391 27.0273 9.58203 27.457 9.23828 27.7461C8.90234 28.043 8.41016 28.1914 7.76172 28.1914H6.48438ZM28.1758 7.50781C28.3633 7.50781 28.5234 7.44531 28.6562 7.32031C28.7891 7.1875 28.8555 7.02344 28.8555 6.82812C28.8555 6.63281 28.7891 6.46875 28.6562 6.33594C28.5234 6.20313 28.3633 6.13672 28.1758 6.13672C27.9883 6.13672 27.8242 6.20313 27.6836 6.33594C27.5508 6.46875 27.4844 6.63281 27.4844 6.82812C27.4844 7.02344 27.5508 7.1875 27.6836 7.32031C27.8242 7.44531 27.9883 7.50781 28.1758 7.50781Z" fill="#E1E3E4"/>
</svg>
