<svg width="28" height="21" viewBox="0 0 28 21" fill="none" xmlns="http://www.w3.org/2000/svg">
<path d="M19.3333 17.6667V20.3333H0.666656V17.6667C0.666656 17.6667 0.666656 12.3333 9.99999 12.3333C19.3333 12.3333 19.3333 17.6667 19.3333 17.6667ZM14.6667 4.99999C14.6667 4.07701 14.393 3.17476 13.8802 2.40733C13.3674 1.6399 12.6386 1.04176 11.7858 0.688551C10.9331 0.335342 9.99481 0.242927 9.08957 0.422991C8.18432 0.603055 7.3528 1.04751 6.70016 1.70016C6.04751 2.3528 5.60306 3.18432 5.42299 4.08957C5.24293 4.99481 5.33534 5.93312 5.68855 6.78584C6.04176 7.63857 6.6399 8.3674 7.40733 8.88018C8.17476 9.39296 9.07701 9.66666 9.99999 9.66666C11.2377 9.66666 12.4247 9.17499 13.2998 8.29982C14.175 7.42465 14.6667 6.23767 14.6667 4.99999ZM19.2533 12.3333C20.073 12.9677 20.7437 13.7739 21.2182 14.6953C21.6928 15.6168 21.9596 16.631 22 17.6667V20.3333H27.3333V17.6667C27.3333 17.6667 27.3333 12.8267 19.2533 12.3333ZM18 0.333322C17.0822 0.328212 16.1847 0.602596 15.4267 1.11999C16.2366 2.25164 16.6721 3.60837 16.6721 4.99999C16.6721 6.39161 16.2366 7.74834 15.4267 8.87999C16.1847 9.39738 17.0822 9.67177 18 9.66666C19.2377 9.66666 20.4247 9.17499 21.2998 8.29982C22.175 7.42465 22.6667 6.23767 22.6667 4.99999C22.6667 3.76231 22.175 2.57533 21.2998 1.70016C20.4247 0.824988 19.2377 0.333322 18 0.333322Z" fill="#E1E3E4"/>
</svg>
