<svg width="7" height="11" viewBox="0 0 7 11" fill="none" xmlns="http://www.w3.org/2000/svg">
<path d="M3.5 10.416C2.82292 10.416 2.23047 10.2777 1.72266 10.001C1.21484 9.72754 0.819336 9.34342 0.536133 8.84863C0.256185 8.35059 0.116211 7.77116 0.116211 7.11035C0.116211 6.78483 0.152018 6.46419 0.223633 6.14844C0.295247 5.83268 0.383138 5.53483 0.487305 5.25488C0.591471 4.97493 0.690755 4.72754 0.785156 4.5127C0.960938 4.11882 1.16927 3.7168 1.41016 3.30664C1.6543 2.89323 1.91146 2.48145 2.18164 2.07129C2.45182 1.66113 2.71224 1.26074 2.96289 0.870117C3.03776 0.75944 3.12077 0.674805 3.21191 0.616211C3.30632 0.557617 3.40234 0.52832 3.5 0.52832C3.60091 0.52832 3.69694 0.557617 3.78809 0.616211C3.87923 0.674805 3.96224 0.75944 4.03711 0.870117C4.29102 1.26074 4.55143 1.66113 4.81836 2.07129C5.08854 2.48145 5.3457 2.89323 5.58984 3.30664C5.83398 3.7168 6.04232 4.11882 6.21484 4.5127C6.30924 4.72754 6.40853 4.97493 6.5127 5.25488C6.61686 5.53483 6.70475 5.83268 6.77637 6.14844C6.84798 6.46419 6.88379 6.78483 6.88379 7.11035C6.88379 7.77116 6.74219 8.35059 6.45898 8.84863C6.17904 9.34342 5.78516 9.72754 5.27734 10.001C4.76953 10.2777 4.17708 10.416 3.5 10.416Z" fill="#6AC3CE"/>
</svg>
