<svg width="24" height="25" viewBox="0 0 24 25" fill="none" xmlns="http://www.w3.org/2000/svg">
<path d="M6 16.5C11 16.5 13 8.5 18 8.5C19.0609 8.5 20.0783 8.92143 20.8284 9.67157C21.5786 10.4217 22 11.4391 22 12.5C22 13.5609 21.5786 14.5783 20.8284 15.3284C20.0783 16.0786 19.0609 16.5 18 16.5C13 16.5 11 8.5 6 8.5C4.93913 8.5 3.92172 8.92143 3.17157 9.67157C2.42143 10.4217 2 11.4391 2 12.5C2 13.5609 2.42143 14.5783 3.17157 15.3284C3.92172 16.0786 4.93913 16.5 6 16.5Z" stroke="#6AC3CE" stroke-width="2" stroke-linecap="round" stroke-linejoin="round"/>
</svg>
